<svg width="310" height="64" viewBox="0 0 310 64" fill="none" xmlns="http://www.w3.org/2000/svg">
<g filter="url(#filter0_d_63310_3389)">
<path d="M2.30298 48V4.36365H12.849V39.4347H31.003V48H2.30298ZM36.463 48V15.2727H46.882V48H36.463ZM41.683 11.4588C40.22 11.4588 38.963 10.9759 37.912 10.0099C36.86 9.02984 36.335 7.85095 36.335 6.47305C36.335 5.10945 36.86 3.94464 37.912 2.97874C38.963 1.99864 40.22 1.50854 41.683 1.50854C43.16 1.50854 44.417 1.99864 45.454 2.97874C46.505 3.94464 47.031 5.10945 47.031 6.47305C47.031 7.85095 46.505 9.02984 45.454 10.0099C44.417 10.9759 43.16 11.4588 41.683 11.4588ZM68.769 60.955C65.658 60.955 62.995 60.521 60.779 59.655C58.563 58.788 56.823 57.602 55.559 56.097C54.295 54.591 53.535 52.886 53.279 50.983L63.144 50.429C63.329 51.097 63.67 51.679 64.167 52.176C64.678 52.673 65.339 53.057 66.148 53.327C66.972 53.597 67.938 53.732 69.046 53.732C70.793 53.732 72.235 53.305 73.371 52.453C74.522 51.615 75.097 50.1451 75.097 48.0426V42.2898H74.735C74.323 43.2983 73.698 44.2003 72.86 44.9957C72.022 45.7912 70.978 46.4162 69.728 46.8707C68.492 47.3253 67.072 47.5526 65.467 47.5526C63.08 47.5526 60.893 46.9986 58.904 45.8906C56.93 44.7685 55.346 43.0355 54.153 40.6918C52.974 38.3338 52.384 35.3011 52.384 31.5938C52.384 27.7727 52.995 24.6264 54.217 22.1548C55.438 19.669 57.036 17.8295 59.011 16.6364C60.999 15.4432 63.137 14.8466 65.424 14.8466C67.143 14.8466 68.613 15.1449 69.835 15.7415C71.07 16.3239 72.086 17.0767 72.881 18C73.677 18.9233 74.281 19.8821 74.692 20.8764H74.991V15.2727H85.367V48.1278C85.367 50.898 84.671 53.234 83.279 55.138C81.887 57.041 79.941 58.483 77.441 59.463C74.941 60.457 72.05 60.955 68.769 60.955ZM69.089 39.9673C70.353 39.9673 71.433 39.6335 72.327 38.9659C73.222 38.2983 73.911 37.3395 74.394 36.0895C74.877 34.8395 75.119 33.341 75.119 31.5938C75.119 29.8182 74.877 28.2912 74.394 27.0128C73.925 25.7202 73.237 24.7259 72.327 24.0298C71.433 23.3338 70.353 22.9858 69.089 22.9858C67.796 22.9858 66.702 23.3409 65.808 24.0511C64.913 24.7614 64.231 25.7628 63.762 27.0554C63.308 28.3338 63.08 29.8466 63.08 31.5938C63.08 33.341 63.315 34.8395 63.783 36.0895C64.252 37.3395 64.927 38.2983 65.808 38.9659C66.702 39.6335 67.796 39.9673 69.089 39.9673ZM102.429 29.3352V48H92.01V4.36365H102.088V21.2812H102.45C103.189 19.2642 104.396 17.6875 106.072 16.5511C107.762 15.4148 109.829 14.8466 112.272 14.8466C114.574 14.8466 116.576 15.358 118.281 16.3807C119.985 17.3892 121.306 18.8168 122.244 20.6634C123.196 22.5099 123.664 24.669 123.65 27.1406V48H113.231V29.1861C113.245 27.3679 112.791 25.9474 111.868 24.9247C110.944 23.902 109.645 23.3906 107.968 23.3906C106.875 23.3906 105.909 23.6321 105.071 24.1151C104.247 24.5838 103.6 25.2585 103.132 26.1392C102.677 27.0199 102.443 28.0852 102.429 29.3352ZM148.627 15.2727V22.9432H127.981V15.2727H148.627ZM132.306 7.43185H142.725V37.7088C142.725 38.348 142.825 38.8665 143.023 39.2642C143.237 39.6477 143.542 39.9247 143.94 40.0952C144.337 40.2514 144.813 40.3295 145.367 40.3295C145.765 40.3295 146.184 40.294 146.624 40.223C147.079 40.1378 147.42 40.0668 147.647 40.0099L149.224 47.5312C148.727 47.6733 148.023 47.8509 147.114 48.0639C146.219 48.2771 145.147 48.4119 143.897 48.4688C141.454 48.5825 139.359 48.2983 137.612 47.6165C135.879 46.9205 134.55 45.8409 133.627 44.3778C132.718 42.9148 132.278 41.0753 132.306 38.8594V7.43185ZM164.288 48L151.589 4.36365H163.244L169.827 32.9574H170.19L177.711 4.36365H187.214L194.735 33.0213H195.097L201.702 4.36365H213.336L200.658 48H190.495L182.633 21.5369H182.292L174.43 48H164.288ZM229.359 48.6179C225.935 48.6179 222.981 47.9432 220.495 46.5938C218.023 45.2301 216.12 43.2912 214.785 40.777C213.464 38.2486 212.803 35.2443 212.803 31.7642C212.803 28.3835 213.471 25.429 214.806 22.9006C216.141 20.358 218.023 18.3835 220.452 16.9773C222.881 15.5568 225.744 14.8466 229.039 14.8466C231.369 14.8466 233.499 15.2088 235.431 15.9332C237.363 16.6577 239.032 17.7301 240.438 19.1506C241.844 20.571 242.938 22.3253 243.719 24.4134C244.501 26.4872 244.891 28.8665 244.891 31.5511V34.1506H216.447V28.0994H235.197C235.183 26.9915 234.92 26.0043 234.408 25.1378C233.897 24.2713 233.194 23.5966 232.299 23.1136C231.418 22.6165 230.403 22.3679 229.252 22.3679C228.087 22.3679 227.043 22.6307 226.12 23.1562C225.197 23.6676 224.465 24.3707 223.925 25.2656C223.386 26.1463 223.102 27.1477 223.073 28.2699V34.4276C223.073 35.7628 223.336 36.9347 223.862 37.9432C224.387 38.9375 225.133 39.7116 226.099 40.2656C227.065 40.8196 228.215 41.0966 229.55 41.0966C230.474 41.0966 231.312 40.9687 232.065 40.7131C232.817 40.4574 233.464 40.081 234.004 39.5838C234.543 39.0866 234.948 38.4759 235.218 37.7514L244.785 38.0284C244.387 40.1733 243.513 42.0412 242.164 43.6321C240.829 45.2088 239.075 46.4375 236.901 47.3182C234.728 48.1847 232.214 48.6179 229.359 48.6179ZM250.213 48V15.2727H260.333V21.2386H260.674C261.271 19.0795 262.244 17.4744 263.593 16.4233C264.943 15.358 266.512 14.8253 268.302 14.8253C268.785 14.8253 269.282 14.8608 269.794 14.9318C270.305 14.9886 270.781 15.081 271.221 15.2088V24.2642C270.724 24.0937 270.071 23.9588 269.261 23.8594C268.466 23.7599 267.755 23.7102 267.13 23.7102C265.895 23.7102 264.779 23.9872 263.785 24.5412C262.805 25.081 262.031 25.8409 261.463 26.821C260.909 27.7869 260.632 28.9233 260.632 30.2301V48H250.213ZM284.863 39.4134L284.906 26.9915H286.354L295.559 15.2727H307.363L293.684 32.0625H290.935L284.863 39.4134ZM275.467 48V4.36365H285.886V48H275.467ZM295.793 48L287.228 34.4062L294.089 27.0128L307.832 48H295.793Z" fill="url(#paint0_linear_63310_3389)"/>
</g>
<defs>
<filter id="filter0_d_63310_3389" x="0.302979" y="0.508545" width="309.529" height="63.4465" filterUnits="userSpaceOnUse" color-interpolation-filters="sRGB">
<feFlood flood-opacity="0" result="BackgroundImageFix"/>
<feColorMatrix in="SourceAlpha" type="matrix" values="0 0 0 0 0 0 0 0 0 0 0 0 0 0 0 0 0 0 127 0" result="hardAlpha"/>
<feOffset dy="1"/>
<feGaussianBlur stdDeviation="1"/>
<feComposite in2="hardAlpha" operator="out"/>
<feColorMatrix type="matrix" values="0 0 0 0 0.411765 0 0 0 0 0.764706 0 0 0 0 0.639216 0 0 0 1 0"/>
<feBlend mode="normal" in2="BackgroundImageFix" result="effect1_dropShadow_63310_3389"/>
<feBlend mode="normal" in="SourceGraphic" in2="effect1_dropShadow_63310_3389" result="shape"/>
</filter>
<linearGradient id="paint0_linear_63310_3389" x1="-1.00002" y1="26.5" x2="308" y2="26.5" gradientUnits="userSpaceOnUse">
<stop stop-color="#F6FDF9"/>
<stop offset="0.447115" stop-color="#B0F1C2"/>
<stop offset="1" stop-color="#69C3A3"/>
</linearGradient>
</defs>
</svg>
