<svg width="128" height="130" viewBox="0 0 128 130" fill="none" xmlns="http://www.w3.org/2000/svg">
<path d="M70.3945 39.2449L86.4462 11.5427" stroke="#B0F1C2" stroke-width="6" stroke-linecap="square"/>
<path d="M62.0919 39.2449L46.0402 11.5427" stroke="#B0F1C2" stroke-width="6" stroke-linecap="square"/>
<path d="M18.5091 41.5523C5.09596 41.5523 5.08313 52.9221 5.08309 58.2902C5.08309 75.9507 3.9788 118.889 5.08331 121.775C6.18782 124.66 32.2948 106.819 45.3354 93.9578V58.8288C45.3354 52.8396 63.2195 66.3153 72.1616 73.8018C82.445 56.7556 104.618 47.1265 114.678 44.4391C130.327 42.1356 117.99 41.5523 117.99 41.5523H18.5091Z" fill="#B0F1C2" stroke="#B0F1C2" stroke-width="7" stroke-linecap="round"/>
<path d="M23.9402 126.897C38.925 126.826 110.119 126.897 110.119 126.897C121.756 126.897 124.669 117.623 124.67 112.986L124.67 49.7501C124.67 36.0158 91.8404 66.2282 75.4255 77.6278L87.1771 85.1631L40.7303 112.986L42 110L23.9402 120.521C-10.2742 128.122 8.95542 126.969 23.9402 126.897Z" fill="#69C3A3" stroke="#69C3A3" stroke-width="6" stroke-linecap="round"/>
<path d="M48.2542 106.769V62.9072L84.6848 84.8382L48.2542 106.769Z" fill="white" stroke="white" stroke-width="4" stroke-linecap="round"/>
<path d="M71.5015 78.4897C81.6491 68.2937 111.772 47.6243 123.949 44.7386" stroke="white" stroke-width="6.5" stroke-linecap="square"/>
<path d="M51.5341 95.8065C43.6918 104.579 15.5976 121.197 4.52747 122.929" stroke="white" stroke-width="6.5" stroke-linecap="square"/>
<path d="M44.9326 1.6543C48.3053 1.6543 51.0752 4.51144 51.0752 8.08008C51.0751 11.6486 48.3052 14.5059 44.9326 14.5059C41.5602 14.5056 38.7911 11.6484 38.791 8.08008C38.791 4.51161 41.5601 1.65457 44.9326 1.6543Z" fill="#B0F1C2" stroke="#B0F1C2"/>
<path d="M89.2133 0.5C92.5859 0.5 95.3558 3.35714 95.3558 6.92578C95.3557 10.4943 92.5859 13.3516 89.2133 13.3516C85.8409 13.3513 83.0718 10.4942 83.0717 6.92578C83.0717 3.35731 85.8408 0.500274 89.2133 0.5Z" fill="#B0F1C2" stroke="#B0F1C2"/>
</svg>
